<svg width="520" height="200" viewBox="0 0 520 200" fill="none" xmlns="http://www.w3.org/2000/svg">
<g clip-path="url(#clip0_1302_2)">
<rect width="520" height="200" fill="#B3ECFF"/>
<path d="M328.89 63.848C334.97 63.848 340.594 64.6587 345.762 66.28C351.031 67.8 355.541 70.1813 359.29 73.424C363.039 76.6667 365.978 80.7707 368.106 85.736C370.234 90.6 371.298 96.4267 371.298 103.216C371.298 109.701 370.386 115.376 368.562 120.24C366.738 125.104 364.154 129.208 360.81 132.552C357.466 135.795 353.413 138.227 348.65 139.848C343.989 141.469 338.77 142.28 332.994 142.28C328.637 142.28 324.583 141.621 320.834 140.304V165.536C319.82 165.84 318.199 166.144 315.97 166.448C313.741 166.853 311.461 167.056 309.13 167.056C306.901 167.056 304.874 166.904 303.05 166.6C301.327 166.296 299.858 165.688 298.642 164.776C297.426 163.864 296.514 162.597 295.906 160.976C295.298 159.456 294.994 157.429 294.994 154.896V81.936C294.994 79.2 295.551 76.9707 296.666 75.248C297.882 73.5253 299.503 71.9547 301.53 70.536C304.671 68.5093 308.573 66.888 313.234 65.672C317.895 64.456 323.114 63.848 328.89 63.848ZM329.194 121.912C339.631 121.912 344.85 115.68 344.85 103.216C344.85 96.7307 343.533 91.9173 340.898 88.776C338.365 85.6347 334.666 84.064 329.802 84.064C327.877 84.064 326.154 84.3173 324.634 84.824C323.114 85.2293 321.797 85.736 320.682 86.344V119.784C321.898 120.392 323.215 120.899 324.634 121.304C326.053 121.709 327.573 121.912 329.194 121.912Z" fill="#0186B3"/>
<path d="M250.636 142.432C244.657 142.432 239.084 141.621 233.916 140C228.849 138.277 224.391 135.744 220.54 132.4C216.791 129.056 213.801 124.851 211.572 119.784C209.444 114.717 208.38 108.789 208.38 102C208.38 95.312 209.444 89.5867 211.572 84.824C213.801 79.96 216.689 76.008 220.236 72.968C223.783 69.8267 227.836 67.5467 232.396 66.128C236.956 64.608 241.617 63.848 246.38 63.848C251.751 63.848 256.615 64.6587 260.972 66.28C265.431 67.9013 269.231 70.1307 272.372 72.968C275.615 75.8053 278.097 79.2 279.82 83.152C281.644 87.104 282.556 91.4107 282.556 96.072C282.556 99.5173 281.593 102.152 279.668 103.976C277.743 105.8 275.057 106.965 271.612 107.472L234.068 113.096C235.183 116.44 237.463 118.973 240.908 120.696C244.353 122.317 248.305 123.128 252.764 123.128C256.919 123.128 260.82 122.621 264.468 121.608C268.217 120.493 271.257 119.227 273.588 117.808C275.209 118.821 276.577 120.24 277.692 122.064C278.807 123.888 279.364 125.813 279.364 127.84C279.364 132.4 277.236 135.795 272.98 138.024C269.737 139.747 266.089 140.912 262.036 141.52C257.983 142.128 254.183 142.432 250.636 142.432ZM246.38 82.696C243.948 82.696 241.82 83.1013 239.996 83.912C238.273 84.7227 236.855 85.7867 235.74 87.104C234.625 88.32 233.764 89.7387 233.156 91.36C232.649 92.88 232.345 94.4507 232.244 96.072L258.236 91.816C257.932 89.7893 256.817 87.7627 254.892 85.736C252.967 83.7093 250.129 82.696 246.38 82.696Z" fill="#0186B3"/>
<path d="M177.74 139.848C176.727 140.152 175.105 140.456 172.876 140.76C170.748 141.064 168.519 141.216 166.188 141.216C163.959 141.216 161.932 141.064 160.108 140.76C158.385 140.456 156.916 139.848 155.7 138.936C154.484 138.024 153.521 136.808 152.812 135.288C152.204 133.667 151.9 131.589 151.9 129.056V83.456C151.9 81.1253 152.305 79.1493 153.116 77.528C154.028 75.8053 155.295 74.2853 156.916 72.968C158.537 71.6507 160.513 70.4853 162.844 69.472C165.276 68.3573 167.86 67.3947 170.596 66.584C173.332 65.7733 176.169 65.1653 179.108 64.76C182.047 64.2533 184.985 64 187.924 64C192.788 64 196.639 64.9627 199.476 66.888C202.313 68.712 203.732 71.752 203.732 76.008C203.732 77.4267 203.529 78.8453 203.124 80.264C202.719 81.5813 202.212 82.7973 201.604 83.912C199.476 83.912 197.297 84.0133 195.068 84.216C192.839 84.4187 190.66 84.7227 188.532 85.128C186.404 85.5333 184.377 85.9893 182.452 86.496C180.628 86.9013 179.057 87.408 177.74 88.016V139.848Z" fill="#0186B3"/>
<path d="M207.604 203.452L229.35 148" stroke="#0186B3" stroke-width="3"/>
<path d="M265.232 56.5L287.604 -0.547623" stroke="#0186B3" stroke-width="3"/>
</g>
<rect x="0.5" y="0.5" width="519" height="199" stroke="black" stroke-opacity="0.5"/>
<defs>
<clipPath id="clip0_1302_2">
<rect width="520" height="200" fill="white"/>
</clipPath>
</defs>
</svg>
